<?xml version="1.0" encoding="UTF-8"?>
<svg xmlns="http://www.w3.org/2000/svg" xmlns:xlink="http://www.w3.org/1999/xlink" width="30px" height="30px" viewBox="0 0 30 30" version="1.1">
<g id="surface1">
<path style=" stroke:none;fill-rule:nonzero;fill:rgb(0%,0%,0%);fill-opacity:1;" d="M 0 15 C 0 10.859375 1.464844 7.324219 4.394531 4.394531 C 7.324219 1.464844 10.859375 0 15 0 C 19.140625 0 22.675781 1.464844 25.605469 4.394531 C 28.535156 7.324219 30 10.859375 30 15 C 30 19.140625 28.535156 22.675781 25.605469 25.605469 C 22.675781 28.535156 19.140625 30 15 30 C 10.859375 30 7.324219 28.535156 4.394531 25.605469 C 1.464844 22.675781 0 19.140625 0 15 Z M 1.640625 15 C 1.640625 18.671875 2.949219 21.816406 5.566406 24.433594 C 8.183594 27.050781 11.328125 28.359375 15 28.359375 C 18.671875 28.359375 21.816406 27.050781 24.433594 24.433594 C 27.050781 21.816406 28.359375 18.671875 28.359375 15 C 28.359375 11.328125 27.050781 8.183594 24.433594 5.566406 C 21.816406 2.949219 18.671875 1.640625 15 1.640625 C 11.328125 1.640625 8.183594 2.949219 5.566406 5.566406 C 2.949219 8.183594 1.640625 11.328125 1.640625 15 Z M 5.859375 18.222656 C 5.78125 18.144531 5.78125 18.066406 5.859375 17.988281 C 6.015625 17.832031 6.210938 17.773438 6.445312 17.8125 C 6.679688 17.851562 6.816406 17.890625 6.855469 17.929688 C 7.128906 18.046875 7.433594 18.308594 7.761719 18.71875 C 8.09375 19.128906 8.359375 19.414062 8.554688 19.570312 C 9.492188 20.351562 10.449219 20.410156 11.425781 19.746094 C 11.503906 19.472656 11.628906 19.238281 11.804688 19.042969 C 11.980469 18.847656 12.148438 18.710938 12.304688 18.632812 C 12.460938 18.554688 12.734375 18.4375 13.125 18.28125 C 11.835938 18.164062 10.789062 17.9375 9.988281 17.605469 C 9.1875 17.273438 8.554688 16.855469 8.085938 16.347656 C 7.460938 15.644531 7.078125 14.726562 6.941406 13.59375 C 6.804688 12.460938 6.894531 11.425781 7.207031 10.488281 C 7.441406 9.902344 7.773438 9.375 8.203125 8.90625 C 7.890625 7.929688 7.949219 6.816406 8.378906 5.566406 C 9.628906 5.644531 10.761719 6.074219 11.777344 6.855469 C 13.730469 6.347656 15.761719 6.328125 17.871094 6.796875 C 18.144531 6.601562 18.5625 6.355469 19.128906 6.0625 C 19.695312 5.769531 20.410156 5.605469 21.269531 5.566406 C 21.425781 5.996094 21.53125 6.503906 21.589844 7.089844 C 21.648438 7.675781 21.621094 8.222656 21.503906 8.730469 C 22.402344 9.667969 22.871094 10.917969 22.910156 12.480469 C 22.910156 13.730469 22.695312 14.765625 22.265625 15.585938 C 21.835938 16.40625 21.074219 17.089844 19.980469 17.636719 C 19.238281 17.988281 18.261719 18.203125 17.050781 18.28125 C 17.597656 18.554688 17.996094 18.835938 18.25 19.128906 C 18.503906 19.421875 18.671875 19.882812 18.75 20.507812 L 18.75 22.351562 L 18.808594 24.140625 C 18.925781 24.335938 19.0625 24.5 19.21875 24.636719 C 19.375 24.773438 19.511719 24.871094 19.628906 24.929688 C 19.746094 24.988281 19.785156 25.078125 19.746094 25.195312 C 19.707031 25.3125 19.550781 25.371094 19.277344 25.371094 C 18.613281 25.371094 18.085938 25.136719 17.695312 24.667969 C 17.578125 24.472656 17.519531 24.238281 17.519531 23.964844 L 17.519531 21.152344 C 17.519531 20.839844 17.441406 20.613281 17.285156 20.476562 C 17.128906 20.339844 16.972656 20.253906 16.816406 20.214844 L 16.816406 23.90625 C 16.816406 24.570312 16.894531 25 17.050781 25.195312 C 17.207031 25.390625 17.304688 25.585938 17.34375 25.78125 C 17.382812 25.820312 17.351562 25.847656 17.253906 25.867188 C 17.160156 25.886719 16.992188 25.859375 16.757812 25.78125 C 16.25 25.664062 15.898438 25.398438 15.703125 24.988281 C 15.507812 24.578125 15.410156 24.140625 15.410156 23.671875 L 15.410156 20.039062 L 14.648438 20.039062 L 14.648438 23.671875 C 14.648438 24.140625 14.550781 24.589844 14.355469 25.019531 C 14.082031 25.566406 13.574219 25.859375 12.832031 25.898438 C 12.714844 25.859375 12.65625 25.820312 12.65625 25.78125 C 12.695312 25.742188 12.8125 25.546875 13.007812 25.195312 C 13.046875 25.117188 13.097656 24.960938 13.15625 24.726562 C 13.214844 24.492188 13.242188 24.21875 13.242188 23.90625 L 13.242188 20.214844 C 13.085938 20.253906 12.941406 20.339844 12.804688 20.476562 C 12.667969 20.617188 12.597656 20.839844 12.597656 21.152344 L 12.597656 23.964844 C 12.597656 24.238281 12.539062 24.472656 12.421875 24.667969 C 12.070312 25.136719 11.542969 25.371094 10.839844 25.371094 C 10.566406 25.371094 10.410156 25.3125 10.371094 25.195312 C 10.332031 25.117188 10.34375 25.050781 10.402344 24.992188 C 10.460938 24.933594 10.546875 24.863281 10.664062 24.785156 C 10.78125 24.707031 10.859375 24.648438 10.898438 24.609375 C 11.054688 24.492188 11.171875 24.335938 11.25 24.140625 C 11.367188 23.984375 11.398438 23.574219 11.339844 22.910156 C 11.28125 22.246094 11.269531 21.816406 11.308594 21.621094 C 10.292969 21.972656 9.257812 21.796875 8.203125 21.09375 C 7.890625 20.78125 7.578125 20.332031 7.265625 19.746094 C 7.03125 19.316406 6.5625 18.808594 5.859375 18.222656 Z M 5.859375 18.222656 "/>
</g>
</svg>
